<?xml version="1.0" encoding="UTF-8"?>
<svg version="1.1" xmlns="http://www.w3.org/2000/svg" width="192" height="192">
<path d="M0 0 C63.36 0 126.72 0 192 0 C192 63.36 192 126.72 192 192 C128.64 192 65.28 192 0 192 C0 128.64 0 65.28 0 0 Z " fill="#1E3A8A" transform="translate(0,0)"/>
<path d="M0 0 C0.7940625 0.433125 1.588125 0.86625 2.40625 1.3125 C3.14488281 1.64507813 3.88351563 1.97765625 4.64453125 2.3203125 C6.83863934 3.50207317 8.62248811 4.56345853 10.40625 6.3125 C11.12361312 9.2640933 10.82291484 11.23959681 10.40625 14.3125 C11.13150879 14.58360596 11.85676758 14.85471191 12.60400391 15.1340332 C15.33835356 16.28394658 17.71967678 17.61331641 20.2421875 19.16796875 C21.14195313 19.70744141 22.04171875 20.24691406 22.96875 20.80273438 C24.84324585 21.93394055 26.71051415 23.07721099 28.5703125 24.23242188 C34.0344614 27.5234632 34.0344614 27.5234632 40.2578125 28.23828125 C41.29679687 27.93277344 42.33578125 27.62726562 43.40625 27.3125 C47.62536049 26.19921147 49.76732673 26.3455693 53.71875 28.3125 C57.30237015 30.58517065 58.2526133 31.72064216 59.33203125 35.87890625 C59.65414563 39.93864959 59.65714656 43.38295942 58.40625 47.3125 C56.58105469 48.29248047 56.58105469 48.29248047 54.3984375 49.21484375 C52.11636569 50.30750737 52.11636569 50.30750737 50.40625 52.3125 C49.30403928 57.21552014 49.25494545 61.93295877 49.36328125 66.94140625 C49.4061839 69.30885268 49.3637012 71.664179 49.3125 74.03125 C48.9854082 81.70706291 48.9854082 81.70706291 52.22045898 88.22680664 C54.36848711 89.43746597 54.36848711 89.43746597 56.58544922 90.33251953 C58.40625 91.3125 58.40625 91.3125 59.50390625 94.87109375 C59.41153951 105.06222397 59.41153951 105.06222397 56.546875 108.625 C52.5516567 111.41360875 49.33645009 112.83698937 44.40625 112.3125 C42.92125 111.3225 42.92125 111.3225 41.40625 110.3125 C34.25348483 110.22812924 28.99349084 114.19879904 23.09375 117.875 C21.12073014 119.08828652 19.14557683 120.2981128 17.16796875 121.50390625 C16.30131592 122.04217041 15.43466309 122.58043457 14.54174805 123.13500977 C12.40625 124.3125 12.40625 124.3125 10.40625 124.3125 C10.633125 125.488125 10.86 126.66375 11.09375 127.875 C11.1171875 130.05859375 11.1171875 130.05859375 10.40625 132.3125 C7.13634772 135.41946901 3.65014102 137.76614295 -0.59375 139.3125 C-3.19140625 138.62890625 -3.19140625 138.62890625 -5.59375 137.3125 C-6.68429688 136.79623047 -6.68429688 136.79623047 -7.796875 136.26953125 C-8.47234375 135.89183594 -9.1478125 135.51414063 -9.84375 135.125 C-10.87242188 134.57779297 -10.87242188 134.57779297 -11.921875 134.01953125 C-13.59375 132.3125 -13.59375 132.3125 -13.96875 128.8828125 C-14.23163242 125.16842616 -14.23163242 125.16842616 -17.078125 123.16015625 C-18.15578125 122.57105469 -19.2334375 121.98195313 -20.34375 121.375 C-21.52817798 120.71373159 -22.71174731 120.0509233 -23.89453125 119.38671875 C-24.50506348 119.0520459 -25.1155957 118.71737305 -25.74462891 118.37255859 C-27.60216769 117.30767433 -29.36569168 116.15959268 -31.13671875 114.95703125 C-31.70616211 114.57732178 -32.27560547 114.1976123 -32.86230469 113.80639648 C-34.45321812 112.73981423 -36.03734368 111.66312782 -37.62109375 110.5859375 C-40.58737578 108.97433907 -40.58737578 108.97433907 -43.91015625 110.0390625 C-46.45662774 111.06348162 -46.45662774 111.06348162 -47.59375 112.3125 C-52.5623524 112.73298621 -55.700193 111.44080488 -59.734375 108.625 C-63.07209492 104.47388615 -62.64531153 99.9568774 -62.69140625 94.87109375 C-61.59375 91.3125 -61.59375 91.3125 -59.77294922 90.33251953 C-58.69231201 89.87594971 -58.69231201 89.87594971 -57.58984375 89.41015625 C-55.30612661 88.3175091 -55.30612661 88.3175091 -53.59375 86.3125 C-52.49121142 81.40954696 -52.44244552 76.69203791 -52.55078125 71.68359375 C-52.5936839 69.31614732 -52.5512012 66.960821 -52.5 64.59375 C-52.17336839 56.91894482 -52.17336839 56.91894482 -55.40576172 50.39819336 C-57.55219662 49.18738887 -57.55219662 49.18738887 -59.76855469 48.29248047 C-61.59375 47.3125 -61.59375 47.3125 -62.7265625 43.75390625 C-62.70604446 33.5667007 -62.70604446 33.5667007 -59.51171875 29.96484375 C-56.02748364 27.75520139 -53.34213929 26.13460347 -49.13671875 26.5625 C-46.59375 27.3125 -46.59375 27.3125 -43.6640625 28.58984375 C-40.5436563 29.647477 -40.5436563 29.647477 -37.5859375 28.00390625 C-36.55726562 27.30136719 -35.52859375 26.59882812 -34.46875 25.875 C-33.33555108 25.1249169 -32.20141268 24.37625146 -31.06640625 23.62890625 C-30.20813232 23.05100342 -30.20813232 23.05100342 -29.33251953 22.46142578 C-26.58048326 20.6429643 -23.75228811 18.98039478 -20.90625 17.3125 C-19.93300781 16.735 -18.95976563 16.1575 -17.95703125 15.5625 C-15.59375 14.3125 -15.59375 14.3125 -13.59375 14.3125 C-13.820625 13.136875 -14.0475 11.96125 -14.28125 10.75 C-14.3046875 8.56640625 -14.3046875 8.56640625 -13.59375 6.3125 C-9.90795237 2.81035895 -5.27741546 -1.39883301 0 0 Z " fill="#223D8B" transform="translate(97.59375,26.6875)"/>
<path d="M0 0 C0.7940625 0.433125 1.588125 0.86625 2.40625 1.3125 C3.14488281 1.64507813 3.88351563 1.97765625 4.64453125 2.3203125 C6.83863934 3.50207317 8.62248811 4.56345853 10.40625 6.3125 C11.12361312 9.2640933 10.82291484 11.23959681 10.40625 14.3125 C11.13150879 14.58360596 11.85676758 14.85471191 12.60400391 15.1340332 C15.33835356 16.28394658 17.71967678 17.61331641 20.2421875 19.16796875 C21.14195313 19.70744141 22.04171875 20.24691406 22.96875 20.80273438 C24.84324585 21.93394055 26.71051415 23.07721099 28.5703125 24.23242188 C34.0344614 27.5234632 34.0344614 27.5234632 40.2578125 28.23828125 C41.29679687 27.93277344 42.33578125 27.62726562 43.40625 27.3125 C47.62536049 26.19921147 49.76732673 26.3455693 53.71875 28.3125 C57.30237015 30.58517065 58.2526133 31.72064216 59.33203125 35.87890625 C59.65414563 39.93864959 59.65714656 43.38295942 58.40625 47.3125 C56.58105469 48.29248047 56.58105469 48.29248047 54.3984375 49.21484375 C52.11636569 50.30750737 52.11636569 50.30750737 50.40625 52.3125 C49.30403928 57.21552014 49.25494545 61.93295877 49.36328125 66.94140625 C49.4061839 69.30885268 49.3637012 71.664179 49.3125 74.03125 C48.9854082 81.70706291 48.9854082 81.70706291 52.22045898 88.22680664 C54.36848711 89.43746597 54.36848711 89.43746597 56.58544922 90.33251953 C58.40625 91.3125 58.40625 91.3125 59.50390625 94.87109375 C59.41153951 105.06222397 59.41153951 105.06222397 56.546875 108.625 C52.5516567 111.41360875 49.33645009 112.83698937 44.40625 112.3125 C42.92125 111.3225 42.92125 111.3225 41.40625 110.3125 C34.25348483 110.22812924 28.99349084 114.19879904 23.09375 117.875 C21.12073014 119.08828652 19.14557683 120.2981128 17.16796875 121.50390625 C16.30131592 122.04217041 15.43466309 122.58043457 14.54174805 123.13500977 C12.40625 124.3125 12.40625 124.3125 10.40625 124.3125 C10.633125 125.488125 10.86 126.66375 11.09375 127.875 C11.1171875 130.05859375 11.1171875 130.05859375 10.40625 132.3125 C7.13634772 135.41946901 3.65014102 137.76614295 -0.59375 139.3125 C-3.19140625 138.62890625 -3.19140625 138.62890625 -5.59375 137.3125 C-6.68429688 136.79623047 -6.68429688 136.79623047 -7.796875 136.26953125 C-8.47234375 135.89183594 -9.1478125 135.51414063 -9.84375 135.125 C-10.87242188 134.57779297 -10.87242188 134.57779297 -11.921875 134.01953125 C-13.59375 132.3125 -13.59375 132.3125 -13.96875 128.8828125 C-14.23163242 125.16842616 -14.23163242 125.16842616 -17.078125 123.16015625 C-18.15578125 122.57105469 -19.2334375 121.98195313 -20.34375 121.375 C-21.52817798 120.71373159 -22.71174731 120.0509233 -23.89453125 119.38671875 C-24.50506348 119.0520459 -25.1155957 118.71737305 -25.74462891 118.37255859 C-27.60216769 117.30767433 -29.36569168 116.15959268 -31.13671875 114.95703125 C-31.70616211 114.57732178 -32.27560547 114.1976123 -32.86230469 113.80639648 C-34.45321812 112.73981423 -36.03734368 111.66312782 -37.62109375 110.5859375 C-40.58737578 108.97433907 -40.58737578 108.97433907 -43.91015625 110.0390625 C-46.45662774 111.06348162 -46.45662774 111.06348162 -47.59375 112.3125 C-52.5623524 112.73298621 -55.700193 111.44080488 -59.734375 108.625 C-63.07209492 104.47388615 -62.64531153 99.9568774 -62.69140625 94.87109375 C-61.59375 91.3125 -61.59375 91.3125 -59.77294922 90.33251953 C-58.69231201 89.87594971 -58.69231201 89.87594971 -57.58984375 89.41015625 C-55.30612661 88.3175091 -55.30612661 88.3175091 -53.59375 86.3125 C-52.49121142 81.40954696 -52.44244552 76.69203791 -52.55078125 71.68359375 C-52.5936839 69.31614732 -52.5512012 66.960821 -52.5 64.59375 C-52.17336839 56.91894482 -52.17336839 56.91894482 -55.40576172 50.39819336 C-57.55219662 49.18738887 -57.55219662 49.18738887 -59.76855469 48.29248047 C-61.59375 47.3125 -61.59375 47.3125 -62.7265625 43.75390625 C-62.70604446 33.5667007 -62.70604446 33.5667007 -59.51171875 29.96484375 C-56.02748364 27.75520139 -53.34213929 26.13460347 -49.13671875 26.5625 C-46.59375 27.3125 -46.59375 27.3125 -43.6640625 28.58984375 C-40.5436563 29.647477 -40.5436563 29.647477 -37.5859375 28.00390625 C-36.55726562 27.30136719 -35.52859375 26.59882812 -34.46875 25.875 C-33.33555108 25.1249169 -32.20141268 24.37625146 -31.06640625 23.62890625 C-30.20813232 23.05100342 -30.20813232 23.05100342 -29.33251953 22.46142578 C-26.58048326 20.6429643 -23.75228811 18.98039478 -20.90625 17.3125 C-19.93300781 16.735 -18.95976563 16.1575 -17.95703125 15.5625 C-15.59375 14.3125 -15.59375 14.3125 -13.59375 14.3125 C-13.820625 13.136875 -14.0475 11.96125 -14.28125 10.75 C-14.3046875 8.56640625 -14.3046875 8.56640625 -13.59375 6.3125 C-9.90795237 2.81035895 -5.27741546 -1.39883301 0 0 Z M-23.90625 24.5625 C-24.55787109 24.95824219 -25.20949219 25.35398437 -25.88085938 25.76171875 C-27.17506328 26.55197339 -28.46234835 27.35367927 -29.7421875 28.16699219 C-31.46918526 29.23543542 -33.25891116 30.20058595 -35.05078125 31.15625 C-37.94602449 33.14217737 -37.94602449 33.14217737 -38.1796875 36.765625 C-38.11007813 38.01859375 -38.04046875 39.2715625 -37.96875 40.5625 C-37.91460937 41.82578125 -37.86046875 43.0890625 -37.8046875 44.390625 C-37.73507813 45.35484375 -37.66546875 46.3190625 -37.59375 47.3125 C-38.315625 47.580625 -39.0375 47.84875 -39.78125 48.125 C-40.709375 48.516875 -41.6375 48.90875 -42.59375 49.3125 C-43.8933667 49.85910278 -43.8933667 49.85910278 -45.21923828 50.41674805 C-47.93731356 52.17478264 -47.93731356 52.17478264 -48.30419922 55.67895508 C-48.36419604 57.06236977 -48.39370003 58.44732428 -48.3984375 59.83203125 C-48.41270782 60.56822189 -48.42697815 61.30441254 -48.44168091 62.06291199 C-48.46259915 63.62035271 -48.47015275 65.17802197 -48.46533203 66.7355957 C-48.46872787 69.10952765 -48.5464975 71.47336749 -48.62890625 73.84570312 C-49.01513168 81.78999335 -49.01513168 81.78999335 -45.51733398 88.51098633 C-43.06299996 90.03249902 -43.06299996 90.03249902 -40.54101562 91.20532227 C-39.89841797 91.57069092 -39.25582031 91.93605957 -38.59375 92.3125 C-38.26953125 95.28515625 -38.26953125 95.28515625 -38.90625 98.375 C-39.1534268 101.86733048 -39.1534268 101.86733048 -37.59375 105.3125 C-31.50735603 110.75859288 -23.2948188 115.57539618 -15.59375 118.3125 C-12.32946179 117.89709119 -10.36572411 116.59034484 -7.71875 114.6875 C-4.96199057 112.93458827 -3.86916809 112.32374155 -0.53125 112.1875 C2.73080568 113.43679792 4.97522538 115.0750158 7.59765625 117.3515625 C10.1830161 118.72520942 11.60853756 118.03972248 14.40625 117.3125 C26.5910172 112.39196205 26.5910172 112.39196205 35.33154297 103.37451172 C36.1365109 99.23277224 35.47872365 95.34023436 34.40625 91.3125 C35.4890625 90.9103125 35.4890625 90.9103125 36.59375 90.5 C37.521875 90.108125 38.45 89.71625 39.40625 89.3125 C40.27338623 88.94882324 41.14052246 88.58514648 42.03393555 88.21044922 C44.7537621 86.44898707 44.7537621 86.44898707 45.10083008 82.93017578 C45.15406605 81.54018272 45.17716729 80.14882395 45.17578125 78.7578125 C45.19362923 77.64996902 45.19362923 77.64996902 45.21183777 76.51974487 C45.22837503 74.95807067 45.2317392 73.3962094 45.22290039 71.83447266 C45.21877204 69.45022965 45.283744 67.07448936 45.35351562 64.69140625 C45.6955134 56.93039751 45.6955134 56.93039751 42.63818359 50.12792969 C39.89980397 48.36926905 37.6821091 47.3125 34.40625 47.3125 C34.60347656 46.41789062 34.80070312 45.52328125 35.00390625 44.6015625 C35.54550185 40.33251481 35.62810938 37.46424051 34.40625 33.3125 C30.26121023 29.14579181 24.67372292 26.72121803 19.40136719 24.27416992 C17.40625 23.3125 17.40625 23.3125 14.53515625 21.5078125 C12.3798622 19.99532964 12.3798622 19.99532964 9.53125 20.875 C7.13292817 21.97822804 5.06958597 23.11911261 2.84375 24.5 C-0.59375 26.3125 -0.59375 26.3125 -3.03125 26.375 C-6.19698651 25.06237755 -8.90584998 23.3082757 -11.7265625 21.37109375 C-16.37946919 18.73314874 -19.93596524 22.10084628 -23.90625 24.5625 Z " fill="#E9E8E9" transform="translate(97.59375,26.6875)"/>
<path d="M0 0 C7.26 0 14.52 0 22 0 C25 6 25 6 25 8 C25.96421875 7.95359375 26.9284375 7.9071875 27.921875 7.859375 C29.18515625 7.82328125 30.4484375 7.7871875 31.75 7.75 C33.00296875 7.70359375 34.2559375 7.6571875 35.546875 7.609375 C39 8 39 8 41.18261719 9.50292969 C43.72086567 12.990464 43.57458066 16.19025856 43.53125 20.34375 C43.53699036 21.55291077 43.53699036 21.55291077 43.54284668 22.78649902 C43.5455639 24.48772432 43.5382159 26.18899153 43.52148438 27.89013672 C43.5000699 30.49150896 43.52129019 33.09011972 43.546875 35.69140625 C43.54423169 37.34636025 43.53910663 39.00131254 43.53125 40.65625 C43.53934692 41.43238647 43.54744385 42.20852295 43.55578613 43.00817871 C43.49771387 46.35911516 43.38197478 48.5007816 41.31335449 51.2043457 C38.47062139 53.41091021 37.03633803 53.50592031 33.46875 53.51757812 C32.36080078 53.53018677 31.25285156 53.54279541 30.11132812 53.55578613 C28.91958984 53.54768921 27.72785156 53.53959229 26.5 53.53125 C24.65825195 53.53699036 24.65825195 53.53699036 22.77929688 53.54284668 C20.18358541 53.54556842 17.58784664 53.53818911 14.9921875 53.52148438 C11.01500401 53.50008075 7.03962718 53.52127963 3.0625 53.546875 C0.54166267 53.54423177 -1.97917353 53.53910691 -4.5 53.53125 C-5.69173828 53.53934692 -6.88347656 53.54744385 -8.11132812 53.55578613 C-9.77325195 53.53687317 -9.77325195 53.53687317 -11.46875 53.51757812 C-12.44263672 53.51439575 -13.41652344 53.51121338 -14.41992188 53.50793457 C-17.76224006 52.8499394 -18.94987343 51.67939391 -21 49 C-21.3978143 46.08920028 -21.56159 43.56451259 -21.53125 40.65625 C-21.5350769 39.85014282 -21.53890381 39.04403564 -21.54284668 38.21350098 C-21.5455639 36.51227568 -21.5382159 34.81100847 -21.52148438 33.10986328 C-21.5000699 30.50849104 -21.52129019 27.90988028 -21.546875 25.30859375 C-21.54423169 23.65363975 -21.53910663 21.99868746 -21.53125 20.34375 C-21.53934692 19.56761353 -21.54744385 18.79147705 -21.55578613 17.99182129 C-21.494812 14.47343866 -21.28693619 12.39208959 -19.18261719 9.51660156 C-16.06935374 7.35333618 -13.50279449 7.38899239 -9.75 7.25 C-8.48671875 7.19328125 -7.2234375 7.1365625 -5.921875 7.078125 C-4.95765625 7.05234375 -3.9934375 7.0265625 -3 7 C-2.01 4.69 -1.02 2.38 0 0 Z " fill="#F3F0ED" transform="translate(85,68)"/>
<path d="M0 0 C5.27930449 2.30712995 9.88692731 5.73595172 12.40625 11.01953125 C13.86018581 15.86917241 14.01824399 20.56706456 12.046875 25.27734375 C9.08277519 30.31443742 5.66219537 34.11260154 0 36 C-5.70972311 36.72870456 -10.57993989 36.86924752 -15.4375 33.5 C-19.72706761 29.74772936 -22.32449781 25.61675132 -23.375 19.9921875 C-23.70996416 14.65369621 -21.99927089 10.36787023 -19 6 C-13.25985273 0.54686009 -7.83101232 -1.29561404 0 0 Z " fill="#2B4590" transform="translate(101,80)"/>
<path d="M0 0 C3.200956 1.527729 5.72608443 3.2789662 8 6 C8.85588829 9.74451128 8.84302743 13.49191761 6.9453125 16.88671875 C4.62980188 19.7160261 2.69213514 21.70218422 -0.953125 22.34375 C-4.40225221 22.5783845 -6.95915587 22.67348738 -9.92578125 20.75390625 C-12.9436874 17.63516314 -14.4297011 14.78079524 -14.8125 10.4375 C-14.55004228 6.78808794 -13.57055371 4.96332528 -10.9375 2.4375 C-7.25738391 -0.23894807 -4.56089442 -0.76014907 0 0 Z " fill="#F1EFEC" transform="translate(99,87)"/>
<path d="M0 0 C0.35044155 3.40058096 0.51362894 6.61110802 0 10 C-2.6875 12.75 -2.6875 12.75 -6 14 C-9.27396279 13.2386133 -11.19064465 11.87290357 -14 10 C-14.69590564 6.61905844 -14.60110455 3.39315092 -14 0 C-9.35749435 -4.64250565 -5.18234318 -2.66238772 0 0 Z " fill="#26418E" transform="translate(103,35)"/>
<path d="M0 0 C1.80328001 1.07222055 3.56688393 2.21125595 5.3125 3.375 C6.07782904 6.44818175 5.98447187 9.28829993 5.3125 12.375 C2.6875 15.0625 2.6875 15.0625 -0.6875 16.375 C-4.29564688 15.6811256 -6.09036494 14.97213506 -8.6875 12.375 C-9.30543708 9.29719799 -9.31361489 6.45112966 -8.6875 3.375 C-5.70631536 0.39381536 -4.22731616 -0.98309678 0 0 Z " fill="#243F8D" transform="translate(97.6875,143.625)"/>
<path d="M0 0 C1.80328001 1.07222055 3.56688393 2.21125595 5.3125 3.375 C6.07763155 6.44738869 5.98959203 9.28986293 5.3125 12.375 C2.625 15.0625 2.625 15.0625 -0.6875 16.375 C-3.96146279 15.6136133 -5.87814465 14.24790357 -8.6875 12.375 C-9.45263155 9.30261131 -9.36459203 6.46013707 -8.6875 3.375 C-5.70631536 0.39381536 -4.22731616 -0.98309678 0 0 Z " fill="#27428E" transform="translate(49.6875,117.625)"/>
<path d="M0 0 C2.3715284 2.89853471 2.30611033 5.22608773 2.14453125 8.89453125 C1.6875 11.0625 1.6875 11.0625 -0.5625 13.6875 C-3.3125 15.0625 -3.3125 15.0625 -5.3125 15 C-5.9725 14.690625 -6.6325 14.38125 -7.3125 14.0625 C-8.22 13.7325 -9.1275 13.4025 -10.0625 13.0625 C-12.3125 11.0625 -12.3125 11.0625 -12.8046875 8.96875 C-12.94038603 6.5102119 -12.87094982 4.46160044 -12.3125 2.0625 C-8.53573453 -1.4984503 -4.73001886 -1.91757521 0 0 Z " fill="#29438F" transform="translate(149.3125,118.9375)"/>
<path d="M0 0 C2.53835514 2.39330628 2.6418715 3.12518743 2.875 6.5 C2.65772342 10.2992362 2.36736491 10.87835259 -0.4375 13.75 C-3.8125 15.0625 -3.8125 15.0625 -7.0625 14.4375 C-9.8125 13.0625 -9.8125 13.0625 -11.8125 11.0625 C-12.30836001 8.02391597 -12.26396181 5.10568701 -11.8125 2.0625 C-8.45390963 -2.04244378 -4.69336586 -1.56445529 0 0 Z " fill="#26418D" transform="translate(52.8125,59.9375)"/>
<path d="M0 0 C2.38013876 2.90905848 2.31055792 5.28034258 2.13671875 8.9609375 C1.6875 11.0625 1.6875 11.0625 -0.4375 13.1875 C-3.88083104 14.23547032 -5.86579118 14.03656988 -9.3125 13.0625 C-12.3125 11.0625 -12.3125 11.0625 -12.78125 9.00390625 C-12.81283626 6.59940185 -12.77547458 4.42496842 -12.3125 2.0625 C-8.53573453 -1.4984503 -4.73001886 -1.91757521 0 0 Z " fill="#28438E" transform="translate(149.3125,59.9375)"/>
<path d="M0 0 C1.17046875 0.03609375 2.3409375 0.0721875 3.546875 0.109375 C4.43890625 0.15578125 5.3309375 0.2021875 6.25 0.25 C6.25 0.58 6.25 0.91 6.25 1.25 C5.00283203 1.30607422 5.00283203 1.30607422 3.73046875 1.36328125 C2.64378906 1.42902344 1.55710937 1.49476562 0.4375 1.5625 C-1.18091797 1.64951172 -1.18091797 1.64951172 -2.83203125 1.73828125 C-5.64878697 2.04602366 -5.64878697 2.04602366 -7.40039062 3.27148438 C-9.53222562 6.39673597 -9.23142703 9.75839988 -9.26171875 13.41796875 C-9.27966995 14.21278152 -9.29762115 15.0075943 -9.31611633 15.82649231 C-9.3702697 18.36344101 -9.40413028 20.90020107 -9.4375 23.4375 C-9.47066874 25.15822941 -9.50515799 26.8789339 -9.54101562 28.59960938 C-9.62599873 32.81627022 -9.69278542 37.03287464 -9.75 41.25 C-10.08 41.25 -10.41 41.25 -10.75 41.25 C-10.84895826 36.05393014 -10.92150993 30.85841002 -10.96972656 25.66162109 C-10.9898285 23.89427128 -11.01711472 22.12698787 -11.05175781 20.35986328 C-11.10034009 17.81786715 -11.12298226 15.27675104 -11.140625 12.734375 C-11.16127014 11.94569031 -11.18191528 11.15700562 -11.20318604 10.34442139 C-11.20464475 6.76931551 -11.05946383 4.67555422 -8.92773438 1.74414062 C-5.87358109 -0.35130984 -3.66075869 -0.14643035 0 0 Z " fill="#B3B7CD" transform="translate(74.75,75.75)"/>
<path d="M0 0 C0.99 0.33 1.98 0.66 3 1 C3 1.99 3 2.98 3 4 C3.66 4 4.32 4 5 4 C4.67 4.66 4.34 5.32 4 6 C0.9375 6.625 0.9375 6.625 -2 7 C-2.33 5.35 -2.66 3.7 -3 2 C-2.01 1.34 -1.02 0.68 0 0 Z " fill="#E0E0E4" transform="translate(80,42)"/>
<path d="M0 0 C7.26 0 14.52 0 22 0 C22 0.33 22 0.66 22 1 C21.12263184 1.02187378 21.12263184 1.02187378 20.22753906 1.04418945 C17.56770603 1.1188357 14.90910552 1.21543899 12.25 1.3125 C11.32960938 1.33505859 10.40921875 1.35761719 9.4609375 1.38085938 C8.57148437 1.41630859 7.68203125 1.45175781 6.765625 1.48828125 C5.54020996 1.52755737 5.54020996 1.52755737 4.29003906 1.56762695 C1.54005383 2.08684058 0.09770527 3.19083451 -2 5 C-1.34 3.35 -0.68 1.7 0 0 Z " fill="#DFE0E5" transform="translate(85,68)"/>
<path d="M0 0 C1.18851563 0.00902344 2.37703125 0.01804687 3.6015625 0.02734375 C4.51679687 0.03894531 5.43203125 0.05054687 6.375 0.0625 C6.375 0.3925 6.375 0.7225 6.375 1.0625 C5.14523438 1.11857422 5.14523438 1.11857422 3.890625 1.17578125 C2.81296875 1.24152344 1.7353125 1.30726562 0.625 1.375 C-0.44234375 1.43300781 -1.5096875 1.49101563 -2.609375 1.55078125 C-5.8071068 2.09340154 -7.25098691 2.91321145 -9.625 5.0625 C-9.25 3.125 -9.25 3.125 -8.625 1.0625 C-5.74084117 -0.37957941 -3.20778472 -0.03144887 0 0 Z " fill="#CED2DF" transform="translate(74.625,75.9375)"/>
</svg>
